<svg width="120" height="140" viewBox="0 0 120 140" fill="none" xmlns="http://www.w3.org/2000/svg">
<path d="M78.1113 137.466C36.6284 137.466 2.99987 107.365 2.99987 70.233C2.99987 33.1013 36.6284 3 78.1113 3" stroke="#B16C11" stroke-width="5"/>
<path d="M38.4343 72.3547C37.2628 71.1832 37.2628 69.2837 38.4343 68.1121L57.5262 49.0202C58.6978 47.8486 60.5973 47.8486 61.7689 49.0202C62.9404 50.1918 62.9404 52.0913 61.7689 53.2628L44.7983 70.2334L61.7689 87.204C62.9405 88.3755 62.9405 90.275 61.7689 91.4466C60.5973 92.6182 58.6978 92.6182 57.5262 91.4466L38.4343 72.3547ZM119.62 73.2334L40.5557 73.2334L40.5557 67.2334L119.62 67.2334L119.62 73.2334Z" fill="#D69D52"/>
</svg>
