<svg width="120" height="140" viewBox="0 0 120 140" fill="none" xmlns="http://www.w3.org/2000/svg">
<path d="M41.509 137.466C82.9919 137.466 116.62 107.365 116.62 70.233C116.62 33.1013 82.9919 3 41.509 3" stroke="#B16C11" stroke-width="5"/>
<path d="M81.186 72.3547C82.3576 71.1832 82.3576 69.2837 81.186 68.1121L62.0941 49.0202C60.9226 47.8486 59.0231 47.8486 57.8515 49.0202C56.6799 50.1918 56.6799 52.0913 57.8515 53.2628L74.8221 70.2334L57.8515 87.204C56.6799 88.3755 56.6799 90.275 57.8515 91.4466C59.0231 92.6182 60.9226 92.6182 62.0941 91.4466L81.186 72.3547ZM-2.65734e-07 73.2334L79.0647 73.2334L79.0647 67.2334L2.65734e-07 67.2334L-2.65734e-07 73.2334Z" fill="#D69D52"/>
</svg>
